<svg width="342" height="223" xmlns="http://www.w3.org/2000/svg" xml:space="preserve" version="1.1">

 <g>
  <title>Layer 1</title>
  <path id="svg_2" fill="#1B7A9A" d="m342.4,202.6c0,11 -8.9,19.9 -19.9,19.9l-302.6,0c-11,0 -19.9,-8.9 -19.9,-19.9l0,-181.5c0,-11 8.9,-19.9 19.9,-19.9l302.6,0c11,0 19.9,8.9 19.9,19.9l0,181.5l0,0z"/>
  <g id="svg_3">
   <path id="svg_4" fill="#2992AD" d="m169.9,23c0,0 -3.3,2.1 -5,4.9c-1.7,2.9 -1.7,5.3 -1.7,5.3s2.1,1.2 4.2,1.2c2.1,0 7.8,-2.1 7.8,-4.9c0.1,-2.8 -5.3,-6.5 -5.3,-6.5z"/>
   <path id="svg_5" fill="#2992AD" d="m282.1,66.6c2.5,0.4 6.2,-2 6.2,-2c7.1,2 17.5,36.6 17.5,36.6c-10.4,-62.2 -52,-88.8 -82.3,-100l-17.8,0c0.2,0.4 0.3,0.7 0.2,0.9c-0.8,2 -3.7,4.5 -6.2,3.3s-10.4,-1.6 -14.1,0.8c-3.7,2.5 -5.4,9.5 -5,12.3c0.4,2.9 11.6,2.1 12.9,2.1c1.2,0 -0.4,-4.9 -2.5,-6.2c-2.1,-1.2 -0.8,-4.1 2.1,-4.5s4.2,3.3 5.8,4.5c1.7,1.2 1.2,9.9 1.2,9.9c-1.2,2.9 -10,-1.6 -13.3,-0.4c-3.3,1.2 -8.3,11.9 -10.1,12.9c-1.8,0.9 -0.4,7.5 0.2,10.6c0.6,3 -11.6,0.4 -14.1,2.9s0,10.7 1.2,13.2c1.3,2.5 8.7,0.8 11.6,0.8s5.8,-6.2 6.6,-8.2c0.8,-2.1 6.2,-6.2 10,-7.4c3.7,-1.2 2.1,4.5 2.5,6.6s7.9,1.2 8.3,3.3s5,-1.2 7.5,-3.3c2.5,-2 4.2,-2.9 6.6,0.4c2.5,3.3 8.7,-0.4 13.3,-0.4c4.6,0 10,-4.9 12.5,-1.2s-5,10.3 -5,10.3l2.3,2.1c-8.4,1.4 -25.6,3.5 -33,-0.4c0,0 -6.6,-8.6 -25.3,-1.2c0,0 -32.8,19.7 -33.2,39.5c0,0 -9.1,39 25.3,44.4c0,0 36.1,-11.9 40.7,2.1c0,0 1.2,17.3 4.6,21c0,0 5.4,7.9 5,12.7c0,0 -3.7,16 1.2,28.4c0,0 1.8,5.7 2.6,10l9.9,0c10.1,-5.1 25.5,-15.6 32,-34.7c0,0 5.8,-20.6 6.2,-25.9c0,0 8.3,-23.8 10.4,-31.2c0,0 7.5,-22.2 -5,-19.3c0,0 -8.7,-8.2 -15,-14.4c-3.1,-3.1 -7.8,-10.6 -12,-17.6l18.3,16.8c9.1,7.4 14.1,-3.7 15,-7.4c0.8,-3.7 -0.4,-9.5 -0.8,-13.1c-0.4,-3.7 -0.8,-4.5 -7.9,-5.4c-7.1,-0.8 -13.7,-7.8 -12.9,-9.9c0.8,-2.5 13.3,5.3 15.8,5.7z"/>
   <path id="svg_6" fill="#2992AD" d="m63.7,54.5c-2.6,5.5 -6.9,20.5 -4,14.7s10.1,-10 16.7,-15.7c6.7,-5.8 26.6,-14 31.2,-15.6c4.6,-1.7 4.2,-10.3 6.2,-13.6c2.1,-3.3 5.8,-8.2 10.4,-11.5c4.6,-3.3 15.8,-11.1 18.3,-10.3s-8.7,8.2 -12.9,11.5s2.9,6.2 5,4.5s10.4,-5.7 15.4,-7c3.4,-0.8 9.2,-6.8 12.5,-10.4l-31.3,0c-5.6,1.2 -9.6,2.2 -9.6,2.2c-40.2,19.7 -57.9,51.2 -57.9,51.2z"/>
   <path id="svg_7" fill="#2992AD" d="m109.2,210.8c3.3,-2.1 0.4,-7 -0.4,-9.9c-0.8,-2.9 1.7,-10.3 2.9,-15.2c1.2,-4.9 -4.6,-9.4 -8.7,-13.1c-4.2,-3.7 -11.2,-6.2 -15,-7.8c-3.7,-1.6 -6.2,-2 -7.9,-5.3s0,-10.3 0,-13.2c0,-2.9 -7.5,-7.4 -9.6,-11.1s-7.6,-10.7 -11.6,-14.8c-4,-4.1 -5.4,-3.7 -10,-1.6c-4.6,2.1 -0.4,24.3 -0.4,24.3c5.8,42.3 27.8,66.9 43.8,79.5l13.1,0c-0.8,-2.6 -1.5,-5 -1.6,-6.3c-0.4,-3.8 2.1,-3.4 5.4,-5.5z"/>
   <path id="svg_8" fill="#2992AD" d="m48,111.3c1.9,-13.5 1.8,-13.2 6.7,-31.2c2.5,0 0.4,14.4 -0.4,17.3l-6.3,13.9z"/>
  </g>
  <g id="svg_26">
   <rect id="svg_27" fill="#BBBCBB" height="6.8" width="59" y="67.4" x="31.4"/>
   <rect id="svg_28" fill="#BBBCBB" height="5.8" width="59" y="55.2" x="31.4"/>
   <path id="svg_29" fill="#BBBCBB" d="m54.2,40.8l-14.7,0c-4.5,0 -8.1,3.4 -8.1,7.6l0,0.3l22,0l0,-4.8c0,-1.1 0.3,-2.1 0.8,-3.1z"/>
   <path id="svg_30" fill="#BBBCBB" d="m90.4,48.4c0,-4.2 -3.6,-7.6 -8.1,-7.6l-15.5,0c0.5,0.9 0.8,1.9 0.8,3.1l0,4.8l22.7,0l0,-0.3l0.1,0z"/>
   <path id="svg_31" fill="#BBBCBB" d="m31.4,81.5c0,4.2 3.6,7.6 8.1,7.6l42.7,0c4.5,0 8.1,-3.4 8.1,-7.6l0,-0.8l-59,0l0,0.8l0.1,0z"/>
  </g>
  <path id="svg_32" fill="#CDCDCE" d="m90.4,55.2l0,-6.5l-22.7,0l0,-4.8c0,-1.1 -0.3,-2.2 -0.8,-3.1l-12.7,0c-0.5,0.9 -0.8,1.9 -0.8,3.1l0,4.8l-22,0l0,6.5l22,0l0,5.8l-22,0l0,6.5l22,0l0,4.8c0,0.7 0.1,1.4 0.3,2l-22.3,0l0,6.5l59,0l0,-6.5l-23,0c0.2,-0.6 0.3,-1.3 0.3,-2l0,-4.8l22.7,0l0,-6.5l-22.7,0l0,-5.8l22.7,0z"/>
  <g id="svg_33"/>
  <g id="svg_34"/>
  <g id="svg_35"/>
  <g id="svg_36"/>
  <g id="svg_37"/>
  <g id="svg_38"/>
  <g id="svg_39"/>
  <g id="svg_40"/>
  <g id="svg_41"/>
  <g id="svg_42"/>
  <g id="svg_43"/>
  <g id="svg_44"/>
  <g id="svg_45"/>
  <g id="svg_46"/>
  <g id="svg_47"/>
 </g>
</svg>